<svg xmlns="http://www.w3.org/2000/svg" viewBox="0 0 181.07 180.86"><defs><style>.cls-1{fill:#fff;}</style></defs><g id="Capa_2" data-name="Capa 2"><g id="Capa_1-2" data-name="Capa 1"><path class="cls-1" d="M0,84.72c.26-2.12.51-4.24.79-6.36A89,89,0,0,1,15.92,39.2c.42-.62.86-1.21,1.2-1.69,1.61,2.22,3,4.52,4.77,6.51s3.88,3.64,5.9,5.51C17.06,66.34,13.27,84.77,17,104.54A72.9,72.9,0,0,0,41.59,147,74.83,74.83,0,0,0,160.87,64.9c-6.63-18.23-18.76-31.88-36-40.82S89.57,13.59,70.72,18.27A29.38,29.38,0,0,0,62.34,4.43c3-.8,5.71-1.62,8.46-2.23A88.13,88.13,0,0,1,97.55.31c23.79,2.09,43.89,11.85,60,29.46a87.34,87.34,0,0,1,22.26,45.8A90.57,90.57,0,0,1,2.93,113.48,84.71,84.71,0,0,1,.25,97.42,9.77,9.77,0,0,0,0,96.25Z"/><path class="cls-1" d="M134.58,119.47H117.49v-1.62c0-10.37,0-20.74,0-31.1a16.6,16.6,0,0,0-.82-5.1,6.41,6.41,0,0,0-6.07-4.47c-5.73-.44-9.33,2.63-9.76,8.34-.15,2-.18,4.11-.18,6.16q0,13.08,0,26.14v1.64h-17v-1.53c0-10.24,0-20.47,0-30.7A18.79,18.79,0,0,0,83.18,83c-.8-3.41-3-5.42-6-5.79-4.29-.51-7.54.84-9,4.18A14.68,14.68,0,0,0,66.82,87c-.13,10.23-.06,20.46-.06,30.7v1.69h-17V63.09h17V68c4.1-5,9.4-6.56,15.28-6.54s11,2.24,14.62,7.38a17.43,17.43,0,0,1,11.75-7C122,59.57,133,67,134.33,81.41c.26,2.75.24,5.53.24,8.3,0,9.34,0,18.68,0,28Z"/><path class="cls-1" d="M61.46,25.3A18.62,18.62,0,0,1,43.1,43.65,18.74,18.74,0,0,1,24.71,25.28,18.69,18.69,0,0,1,43.25,7,18.6,18.6,0,0,1,61.46,25.3Z"/></g></g></svg>